# xmcd
#
# Track frame offsets: 
#        150
#        19380
#        43207
#        65819
#        83923
#        109923
#        128808
#        149942
#        165010
#        178566
#
# Disc length: 2580 seconds
#
# Revision: 0
# Processed by: cddbd v1.5.2PL0 Copyright (c) Steve Scherf et al.
# Submitted via: ExactAudioCopy v0.99pb4
#
DISCID=910a120a
DTITLE=Sam Lay - I Get Evil
DYEAR=1900
DGENRE=Blues
TTITLE0=You're So Fine
TTITLE1=Black Night
TTITLE2=Rock Me Baby
TTITLE3=I Get Evil
TTITLE4=Mean Disposition
TTITLE5=Boogie Chillen
TTITLE6=Fannie Mae
TTITLE7=Still A Fool
TTITLE8=Hands Off
TTITLE9=Sam's Big Boy
EXTD=
EXTT0=
EXTT1=
EXTT2=
EXTT3=
EXTT4=
EXTT5=
EXTT6=
EXTT7=
EXTT8=
EXTT9=
PLAYORDER=
